<svg viewBox="0 0 6.35 6.35" xmlns="http://www.w3.org/2000/svg"><g style="display:inline"><path d="M.265 5.82a.265.265 0 0 0-.266.266.265.265 0 0 0 .266.264h5.82a.265.265 0 0 0 .266-.264.265.265 0 0 0-.266-.266z" style="color:#000;font-style:normal;font-variant:normal;font-weight:400;font-stretch:normal;font-size:medium;line-height:normal;font-family:sans-serif;font-variant-ligatures:normal;font-variant-position:normal;font-variant-caps:normal;font-variant-numeric:normal;font-variant-alternates:normal;font-variant-east-asian:normal;font-feature-settings:normal;font-variation-settings:normal;text-indent:0;text-align:start;text-decoration:none;text-decoration-line:none;text-decoration-style:solid;text-decoration-color:#000;letter-spacing:normal;word-spacing:normal;text-transform:none;writing-mode:lr-tb;direction:ltr;text-orientation:mixed;dominant-baseline:auto;baseline-shift:baseline;text-anchor:start;white-space:normal;shape-padding:0;shape-margin:0;inline-size:0;clip-rule:nonzero;display:inline;overflow:visible;visibility:visible;isolation:auto;mix-blend-mode:normal;color-interpolation:sRGB;color-interpolation-filters:linearRGB;solid-color:#000;solid-opacity:1;vector-effect:none;fill:#000;fill-opacity:1;fill-rule:nonzero;stroke:none;stroke-width:.529167;stroke-linecap:round;stroke-linejoin:miter;stroke-miterlimit:4;stroke-dasharray:none;stroke-dashoffset:0;stroke-opacity:1;color-rendering:auto;image-rendering:auto;shape-rendering:auto;text-rendering:auto;stop-color:#000"/><path d="M1.163 3.969a.64.64 0 0 0-.634.635v1.482a.265.265 0 0 0 .265.264h1.059a.265.265 0 0 0 .263-.264V4.604a.64.64 0 0 0-.634-.635zm1.854-.901a.64.64 0 0 0-.635.635v2.383a.265.265 0 0 0 .264.264h1.058a.265.265 0 0 0 .264-.264V3.703a.64.64 0 0 0-.635-.635zm1.851-.792a.64.64 0 0 0-.634.634v3.176a.265.265 0 0 0 .263.264h1.059a.265.265 0 0 0 .265-.264V2.91a.64.64 0 0 0-.636-.634zM4.62 0a.265.265 0 0 0-.264.264.265.265 0 0 0 .265.265h.273C3.397 1.816 1.83 2.615.216 2.914a.265.265 0 0 0-.21.309.265.265 0 0 0 .306.213C2.05 3.114 3.722 2.25 5.292.888v.311a.265.265 0 0 0 .264.266.265.265 0 0 0 .265-.266V.42A.426.426 0 0 0 5.4 0Z" style="color:#000;font-style:normal;font-variant:normal;font-weight:400;font-stretch:normal;font-size:medium;line-height:normal;font-family:sans-serif;font-variant-ligatures:normal;font-variant-position:normal;font-variant-caps:normal;font-variant-numeric:normal;font-variant-alternates:normal;font-variant-east-asian:normal;font-feature-settings:normal;font-variation-settings:normal;text-indent:0;text-align:start;text-decoration:none;text-decoration-line:none;text-decoration-style:solid;text-decoration-color:#000;letter-spacing:normal;word-spacing:normal;text-transform:none;writing-mode:lr-tb;direction:ltr;text-orientation:mixed;dominant-baseline:auto;baseline-shift:baseline;text-anchor:start;white-space:normal;shape-padding:0;shape-margin:0;inline-size:0;clip-rule:nonzero;display:inline;overflow:visible;visibility:visible;isolation:auto;mix-blend-mode:normal;color-interpolation:sRGB;color-interpolation-filters:linearRGB;solid-color:#000;solid-opacity:1;vector-effect:none;fill:#000;fill-opacity:1;fill-rule:nonzero;stroke:none;stroke-width:.529167;stroke-linecap:round;stroke-linejoin:round;stroke-miterlimit:4;stroke-dasharray:none;stroke-dashoffset:0;stroke-opacity:1;paint-order:stroke fill markers;color-rendering:auto;image-rendering:auto;shape-rendering:auto;text-rendering:auto;stop-color:#000"/></g></svg>