<svg viewBox="0 0 32 32" xmlns="http://www.w3.org/2000/svg"><defs><style>.cls-1{fill:#04009a}</style></defs><g data-name="7. Id Card" id="_7._Id_Card"><path class="cls-1" d="M29 9h-5a1 1 0 0 0 0 2h5a1 1 0 0 1 1 1v16a1 1 0 0 1-1 1H3a1 1 0 0 1-1-1V12a1 1 0 0 1 1-1h8a2 2 0 0 0 2 2h6a2 2 0 0 0 2-2V3a2 2 0 0 0-2-2h-6a2 2 0 0 0-2 2v6H3a3 3 0 0 0-3 3v16a3 3 0 0 0 3 3h26a3 3 0 0 0 3-3V12a3 3 0 0 0-3-3M13 3h6v8h-6Z"/><path class="cls-1" d="M4 26a1 1 0 0 0 1 1h8a1 1 0 0 0 1-1 5 5 0 0 0-2.207-4.145 4 4 0 1 0-5.586 0A5 5 0 0 0 4 26m3-7a2 2 0 1 1 2 2 2 2 0 0 1-2-2m2 4a3.01 3.01 0 0 1 2.829 2H6.171A3.01 3.01 0 0 1 9 23"/><path d="M25 25h-6a1 1 0 0 1 0-2h6a1 1 0 0 1 0 2m2-4h-8a1 1 0 0 1 0-2h8a1 1 0 0 1 0 2m0-4h-8a1 1 0 0 1 0-2h8a1 1 0 0 1 0 2M16.02 9a1 1 0 0 1-.01-2h.01a1 1 0 0 1 0 2" style="fill:#77acf1"/></g></svg>